<svg width="1467" height="827" viewBox="0 0 1467 827" fill="none" xmlns="http://www.w3.org/2000/svg">
<path d="M578.436 17.498L578.488 17.5013L578.539 17.4992L999.256 1.00137L1234.93 17.4976L1235 17.5026L1235.08 17.4972L1452.57 1.07321L1466 206.001L1452.5 422.438L1452.5 422.5L1452.5 422.563L1465.99 637.882L1413.77 809.947L1120.07 789.502L1119.96 789.495L1119.86 789.51L864.929 826H589.041L393.582 810.003L393.58 810.003L138.623 789.507L1.62765 766.674L21.99 623.641L22.0046 623.539L21.9979 623.435L1.5 306.468V29.9233L157.08 17.4968L157.09 17.496L157.101 17.4949L320.035 1.00322L578.436 17.498Z" stroke="white" stroke-width="2"/>
</svg>
